<?xml version="1.0" standalone="no"?>
<!DOCTYPE svg PUBLIC "-//W3C//DTD SVG 20010904//EN"
 "http://www.w3.org/TR/2001/REC-SVG-20010904/DTD/svg10.dtd">
<svg version="1.0" xmlns="http://www.w3.org/2000/svg"
 width="225.000000pt" height="225.000000pt" viewBox="0 0 225.000000 225.000000"
 preserveAspectRatio="xMidYMid meet">

<g transform="translate(0.000000,225.000000) scale(0.100000,-0.100000)"
fill="#000000" stroke="none">
<path d="M917 1410 c-3 -11 -2 -18 3 -15 11 7 35 -24 69 -92 33 -67 73 -110
108 -119 13 -4 21 -9 19 -13 -3 -4 11 -5 30 -3 28 4 32 7 23 18 -9 11 -6 14
17 14 16 0 41 7 57 14 24 13 27 13 27 -2 1 -28 67 54 78 97 l9 39 -106 4 c-89
4 -123 11 -209 42 -57 20 -107 36 -112 36 -4 0 -10 -9 -13 -20z"/>
<path d="M1485 1381 c-42 -15 -47 -19 -29 -25 25 -8 64 5 83 28 16 20 10 19
-54 -3z"/>
<path d="M827 1199 c7 -7 15 -10 18 -7 3 3 -2 9 -12 12 -14 6 -15 5 -6 -5z"/>
<path d="M1008 1153 c6 -2 18 -2 25 0 6 3 1 5 -13 5 -14 0 -19 -2 -12 -5z"/>
<path d="M421 913 c-17 -42 -28 -79 -25 -82 5 -5 20 13 27 32 1 5 20 10 41 11
31 1 40 -3 47 -21 5 -13 13 -23 18 -23 5 0 -5 36 -22 80 -18 44 -37 80 -43 80
-6 0 -26 -35 -43 -77z m69 -14 c0 -5 -13 -9 -30 -9 -35 0 -35 -1 -13 45 l17
35 13 -31 c7 -17 13 -35 13 -40z"/>
<path d="M740 959 c0 -28 -2 -31 -25 -25 -40 10 -65 -9 -65 -49 0 -40 21 -56
69 -52 l31 2 0 78 c0 42 -2 77 -5 77 -3 0 -5 -14 -5 -31z m-9 -55 c17 -21 0
-49 -31 -49 -31 0 -48 28 -31 49 8 9 21 16 31 16 10 0 23 -7 31 -16z"/>
<path d="M920 905 c0 -79 2 -85 20 -85 16 0 19 5 16 24 -7 37 5 39 34 5 15
-19 33 -30 44 -28 17 4 16 6 -4 32 l-23 28 22 15 c25 18 28 56 5 74 -8 8 -37
15 -65 16 l-49 3 0 -84z m94 36 c8 -12 -18 -32 -35 -29 -17 4 -29 20 -23 30 7
11 51 10 58 -1z"/>
<path d="M1200 905 c0 -79 1 -85 21 -85 16 0 19 4 14 20 -4 11 -2 20 4 20 6 0
15 -9 21 -20 6 -11 20 -20 30 -20 24 0 26 13 5 30 -8 7 -15 20 -15 30 0 10 7
23 15 30 8 7 15 16 15 20 0 13 -44 -2 -53 -17 -14 -23 -25 -5 -23 37 1 32 -2
40 -16 40 -16 0 -18 -11 -18 -85z"/>
<path d="M1330 905 c0 -78 2 -85 20 -85 18 0 20 7 20 85 0 78 -2 85 -20 85
-18 0 -20 -7 -20 -85z"/>
<path d="M560 883 c0 -63 18 -72 22 -10 2 35 7 43 26 45 36 5 25 22 -13 20
l-35 -1 0 -54z"/>
<path d="M806 924 c-40 -40 -5 -103 50 -90 33 9 30 23 -4 18 -18 -2 -33 2 -41
12 -12 14 -8 16 33 16 50 0 57 9 26 40 -24 24 -43 25 -64 4z m62 -21 c2 -9 -8
-13 -33 -13 -33 0 -36 2 -25 15 15 18 51 16 58 -2z"/>
<path d="M1090 922 c-25 -20 -30 -63 -10 -87 9 -11 26 -15 49 -13 41 3 48 21
11 26 -45 6 -46 22 -2 22 48 0 55 17 22 50 -25 25 -41 25 -70 2z m45 -22 c3
-5 -3 -10 -15 -10 -12 0 -18 5 -15 10 3 6 10 10 15 10 5 0 12 -4 15 -10z"/>
<path d="M1412 925 c-26 -19 -30 -66 -7 -88 9 -9 33 -15 60 -15 l45 0 0 54 c0
50 -2 54 -24 54 -13 0 -30 2 -38 5 -7 3 -23 -2 -36 -10z m58 -45 c0 -27 -19
-35 -38 -17 -12 13 -13 19 -3 31 16 19 41 10 41 -14z"/>
<path d="M1568 933 c-27 -4 -28 -7 -28 -59 0 -41 4 -54 15 -54 11 0 15 11 15
40 0 33 3 40 20 40 17 0 20 -7 20 -40 0 -29 4 -40 15 -40 10 0 15 10 15 34 0
41 24 67 37 39 5 -10 8 -30 7 -45 -1 -21 4 -28 17 -28 16 0 19 8 19 50 0 44
-3 52 -25 62 -19 8 -28 8 -40 -2 -12 -10 -19 -10 -27 -2 -7 7 -17 11 -22 11
-6 -1 -23 -4 -38 -6z"/>
<path d="M1762 925 c-26 -19 -30 -66 -7 -88 9 -9 33 -15 60 -15 l45 0 0 54 c0
50 -2 54 -24 54 -13 0 -30 2 -38 5 -7 3 -23 -2 -36 -10z m56 -47 c-4 -27 -33
-36 -42 -13 -8 22 1 35 25 35 15 0 20 -6 17 -22z"/>
</g>
</svg>
